<svg id="Layer_1" data-name="Layer 1" xmlns="http://www.w3.org/2000/svg" xmlns:xlink="http://www.w3.org/1999/xlink" viewBox="0 0 288 147"><defs><style>.cls-1{fill:url(#linear-gradient);}.cls-2{fill:url(#linear-gradient-2);}.cls-3{fill:url(#linear-gradient-3);}.cls-4{fill:url(#linear-gradient-4);}.cls-5{fill:url(#linear-gradient-5);}.cls-6{fill:url(#linear-gradient-6);}.cls-7{fill:url(#linear-gradient-7);}.cls-8{fill:url(#linear-gradient-8);}.cls-9{fill:url(#linear-gradient-9);}.cls-10{fill:url(#linear-gradient-10);}.cls-11{fill:url(#linear-gradient-11);}.cls-12{fill:url(#linear-gradient-12);}.cls-13{fill:url(#linear-gradient-13);}.cls-14{fill:url(#linear-gradient-14);}</style><linearGradient id="linear-gradient" x1="117.2" y1="53.78" x2="-8.55" y2="53.78" gradientUnits="userSpaceOnUse"><stop offset="0.13" stop-color="#2a54c4"/><stop offset="0.19" stop-color="#283ea1"/><stop offset="0.3" stop-color="#241d6d"/><stop offset="0.38" stop-color="#22084c"/><stop offset="0.43" stop-color="#210040"/><stop offset="0.48" stop-color="#22054e"/><stop offset="0.59" stop-color="#251374"/><stop offset="0.73" stop-color="#2929af"/><stop offset="0.77" stop-color="#2a31c4"/><stop offset="1" stop-color="#210943"/></linearGradient><linearGradient id="linear-gradient-2" x1="117.2" y1="112.74" x2="-8.55" y2="112.74" xlink:href="#linear-gradient"/><linearGradient id="linear-gradient-3" x1="57.98" y1="55.76" x2="57.98" y2="116.16" gradientUnits="userSpaceOnUse"><stop offset="0" stop-color="#e6e6e6"/><stop offset="0.42" stop-color="#99998a"/><stop offset="0.85" stop-color="#cfcfca"/><stop offset="1" stop-color="#333"/></linearGradient><linearGradient id="linear-gradient-4" x1="111.11" y1="103.52" x2="2.08" y2="115.26" xlink:href="#linear-gradient-3"/><linearGradient id="linear-gradient-5" x1="50.9" y1="55.76" x2="50.9" y2="116.16" xlink:href="#linear-gradient-3"/><linearGradient id="linear-gradient-6" x1="51.62" y1="55.76" x2="51.62" y2="116.16" xlink:href="#linear-gradient-3"/><linearGradient id="linear-gradient-7" x1="78.23" y1="55.76" x2="78.23" y2="116.16" xlink:href="#linear-gradient-3"/><linearGradient id="linear-gradient-8" x1="129.72" y1="55.76" x2="129.72" y2="116.16" xlink:href="#linear-gradient-3"/><linearGradient id="linear-gradient-9" x1="163.45" y1="55.76" x2="163.45" y2="116.16" xlink:href="#linear-gradient-3"/><linearGradient id="linear-gradient-10" x1="189.74" y1="55.76" x2="189.74" y2="116.16" xlink:href="#linear-gradient-3"/><linearGradient id="linear-gradient-11" x1="215.71" y1="55.76" x2="215.71" y2="116.16" xlink:href="#linear-gradient-3"/><linearGradient id="linear-gradient-12" x1="245.38" y1="55.76" x2="245.38" y2="116.16" xlink:href="#linear-gradient-3"/><linearGradient id="linear-gradient-13" x1="270.51" y1="55.76" x2="270.51" y2="116.16" xlink:href="#linear-gradient-3"/><linearGradient id="linear-gradient-14" x1="102.99" y1="46.12" x2="102.99" y2="155.38" xlink:href="#linear-gradient-3"/></defs><path class="cls-1" d="M21.66,66.68a38.7,38.7,0,0,1,67.86-3.37h.6A42.63,42.63,0,0,0,13.4,66.68Z"/><path class="cls-2" d="M56.52,122.19a38.7,38.7,0,0,1-35.3-22.85H13a42.63,42.63,0,0,0,75.34,7.36h-.88A38.63,38.63,0,0,1,56.52,122.19Z"/><path class="cls-3" d="M53.74,50.45A33.41,33.41,0,0,1,82.4,66.68h7.29a36.81,36.81,0,0,0-63.42-2.86H27A33.37,33.37,0,0,1,53.74,50.45Z"/><path class="cls-4" d="M83.34,99.34a33.4,33.4,0,0,1-58.09,2h-.52a36.8,36.8,0,0,0,65.8-2Z"/><path class="cls-5" d="M7,83.24c0,8,7,14,16.53,14H42.36V80.07H24.8l-5.09,6.11h14.2v4H23.53c-4.72,0-8.09-2.57-8.09-6.55s3.5-6.7,8.09-6.7H44.82V69.77H23.53C14,69.77,7,75.19,7,83.24Zm53.31-6.33h29l5.49-7.14H66.2A6,6,0,0,0,60.31,76.91Z"/><path class="cls-6" d="M55.87,97.23H47.38V69.77h8.49Z"/><path class="cls-7" d="M86.6,80.73H71.67c-1.46,0-2.35-.29-2.72-1H60.66c.61,3.92,3.86,6.47,10.19,6.47H85.78c2,0,2.92.57,2.92,2s-.91,2-2.92,2H65l-5.46,7.06H85.13c8.37,0,11.77-3.37,11.77-9C96.9,83.23,93.29,80.73,86.6,80.73Z"/><path class="cls-8" d="M140.73,98.41V75.65L130.9,93.16h-2.31l-9.87-17.51V98.41h-3.78V68.59h4L129.72,88l10.84-19.36h3.95V98.41Z"/><path class="cls-9" d="M173.57,95.05v3.36H153.33V68.59h19.86V72H157.1v9.66h14v3.15h-14V95.05Z"/><path class="cls-10" d="M201.91,72H191.63V98.41h-3.78V72H177.56V68.59h24.35Z"/><path class="cls-11" d="M214.14,68.59h3.19l12.18,29.82h-4l-3.35-8.74H209.31L206,98.41h-4ZM221,86.73,215.73,73l-5.29,13.77Z"/><path class="cls-12" d="M235.17,98.41V68.59H239V95.05h16.64v3.36Z"/><path class="cls-13" d="M278.89,74.85a6,6,0,0,0-1.34-1.13,11.19,11.19,0,0,0-1.89-1,13.36,13.36,0,0,0-2.29-.72,12.14,12.14,0,0,0-2.58-.27,8.09,8.09,0,0,0-5.08,1.3,4.27,4.27,0,0,0-1.64,3.56,3.58,3.58,0,0,0,.84,2.51,6.07,6.07,0,0,0,2.58,1.51c1.16.39,2.64.79,4.43,1.21a30.8,30.8,0,0,1,5.38,1.63A8.33,8.33,0,0,1,280.78,86,6.94,6.94,0,0,1,282,90.33a7.83,7.83,0,0,1-.82,3.7,7.16,7.16,0,0,1-2.29,2.6,10.25,10.25,0,0,1-3.44,1.51,18.18,18.18,0,0,1-4.29.48,20.45,20.45,0,0,1-4.43-.48,20,20,0,0,1-4.09-1.41A17.85,17.85,0,0,1,259,94.42l1.8-3.19a9.48,9.48,0,0,0,1.75,1.4A16.22,16.22,0,0,0,265,93.92a17.09,17.09,0,0,0,3,.94,14.92,14.92,0,0,0,3.28.36,9.06,9.06,0,0,0,4.95-1.15A3.77,3.77,0,0,0,278,90.7,3.66,3.66,0,0,0,277,88a7.51,7.51,0,0,0-2.92-1.67,48.5,48.5,0,0,0-4.7-1.34,31.9,31.9,0,0,1-5.08-1.66A7.16,7.16,0,0,1,261.19,81a6.47,6.47,0,0,1-1-3.81,8.12,8.12,0,0,1,1.39-4.82,8.52,8.52,0,0,1,3.82-3,14.3,14.3,0,0,1,5.5-1,16,16,0,0,1,3.76.42A14.76,14.76,0,0,1,277.88,70a14.1,14.1,0,0,1,2.78,1.8Z"/><rect class="cls-14" x="101.94" y="30.69" width="2.1" height="105.62"/></svg>