<svg id="Layer_1" data-name="Layer 1" xmlns="http://www.w3.org/2000/svg" xmlns:xlink="http://www.w3.org/1999/xlink" viewBox="0 0 600 500"><defs><style>.cls-1{fill:url(#linear-gradient);}.cls-2{fill:url(#linear-gradient-2);}.cls-3{fill:url(#linear-gradient-3);}.cls-4{fill:url(#linear-gradient-4);}.cls-5{fill:url(#linear-gradient-5);}.cls-6{fill:url(#linear-gradient-6);}.cls-7{fill:url(#linear-gradient-7);}.cls-8{fill:#29235c;}</style><linearGradient id="linear-gradient" x1="89.57" y1="141.78" x2="89.57" y2="309.28" gradientUnits="userSpaceOnUse"><stop offset="0.07" stop-color="#1e0f49"/><stop offset="0.5" stop-color="#006db6"/><stop offset="1" stop-color="#1a093e"/></linearGradient><linearGradient id="linear-gradient-2" x1="71.82" y1="334.32" x2="93.31" y2="196.32" xlink:href="#linear-gradient"/><linearGradient id="linear-gradient-3" x1="249.98" y1="141.78" x2="249.98" y2="309.28" xlink:href="#linear-gradient"/><linearGradient id="linear-gradient-4" x1="445.46" y1="141.78" x2="445.46" y2="309.28" xlink:href="#linear-gradient"/><linearGradient id="linear-gradient-5" x1="314.17" y1="283.09" x2="314.17" y2="134.31" xlink:href="#linear-gradient"/><linearGradient id="linear-gradient-6" x1="437.51" y1="230.82" x2="437.51" y2="358.32" xlink:href="#linear-gradient"/><linearGradient id="linear-gradient-7" x1="452.33" y1="201.61" x2="457.91" y2="105.95" xlink:href="#linear-gradient"/></defs><path class="cls-1" d="M68.07,150.85v139h43v-139Z"/><path class="cls-2" d="M68.07,150.85v139h43Z"/><path class="cls-3" d="M342.74,167.71c-3.77-12.9-13.32-19.14-24.12-19.14-11.19,0-18.68,5.82-23.67,14.76l-22.22,39.46c-12.25,21.42-17.65,31.58-22.22,41.36-4.79-9.78-10.2-20.17-22.45-41.55l-22.22-39.27c-5-9.13-12.48-14.76-23.47-14.76-10.81,0-20.59,6.24-24.32,19.14L122.14,289.85h42.15l13.09-48.4c4.15-15.6,7.27-27.21,9.36-38.24,4.34,9.36,9.32,19.14,19.52,38.24l18.68,35.08c7.27,13.73,14.35,15.6,24.73,15.6s17.47-1.87,24.74-15.6l3.84-7.19,14.84-27.7c9.55-18.07,14.76-28.65,19.33-38.43,2.28,11.22,5.17,22.45,9.55,38.24l13.08,48.4h42.77Z"/><path class="cls-4" d="M479.8,206.33H404.16c-10,0-14.72-2.7-14.72-9.74a13.13,13.13,0,0,1,.19-2.28,6.49,6.49,0,0,1,.19-.84c0-.19.11-.38.15-.53,1.56-4.34,6.2-5.94,14.19-5.94h96.42l27.62-36.15H407.51c-23.32,0-39.11,5.22-48.51,14.35l19,66.2A85.61,85.61,0,0,0,400,234h75.6c10.19,0,14.76,2.93,14.76,10,0,7.27-4.57,10.2-14.76,10.2H384.53l10.23,35.73h77.55c42.38,0,59.62-17.05,59.62-45.51C531.93,219,513.67,206.33,479.8,206.33Z"/><path class="cls-5" d="M377.82,289.85H335.05L322,241.45c-4.38-15.79-7.27-27-9.55-38.24-4.57,9.78-9.78,20.36-19.33,38.43l-14.84,27.7c-10.39,10-27.74-25.19-27.74-25.19,4.57-9.78,10-19.94,22.22-41.36L295,163.33c5-8.94,12.48-14.76,23.67-14.76,10.8,0,20.35,6.24,24.12,19.14Z"/><path class="cls-6" d="M443.31,289.85H394.76l-10.23-35.73h91.09c10.19,0,14.76-2.93,14.76-10.2C490.38,243.92,495,282.77,443.31,289.85Z"/><path class="cls-7" d="M523.24,150.85,500.58,187H404.16c-13.29,0-18,1.75-19.3,6.47,1.22-5.14,14.62-32.19,59.86-42.62Z"/><rect class="cls-8" x="68.07" y="308.24" width="463.86" height="1.45"/><path class="cls-8" d="M68.07,326.66h2.54l9.16,19.7,9.17-19.7h2.54v24.57H88.35V334.66l-7.6,16.57h-2l-7.61-16.57v16.57H68.07Z"/><path class="cls-8" d="M110.72,326.66h15.61v2.73H113.84v7.8h11.51v2.73H113.84v8.58h12.88v2.73h-16Z"/><path class="cls-8" d="M149.66,329.39h-7.41v-2.73H160.2v2.73h-7.42v21.84h-3.12Z"/><path class="cls-8" d="M181.59,326.66h2.73l9.36,24.57h-3.32l-2.34-6H177.88l-2.34,6h-3.32Zm5.46,15.8L183,331.73l-4.09,10.73Z"/><path class="cls-8" d="M209.8,326.66h3.12V348.5h11.7v2.73H209.8Z"/><path class="cls-8" d="M242.7,344c0,3,1.75,4.68,5.07,4.68s5.07-1.72,5.07-3.9c0-6.05-13.07-2.93-13.07-11.7,0-3.32,3.32-6.64,8-6.64a7.48,7.48,0,0,1,7.6,7.42h-3.12a4.45,4.45,0,0,0-4.48-4.69c-2.93,0-4.88,1.92-4.88,3.91,0,6,13.07,2.92,13.07,11.7,0,3.51-3.08,6.63-8.19,6.63s-8.19-3.12-8.19-7.41Z"/><path class="cls-8" d="M306.53,347.92a7.88,7.88,0,0,1-1.71,1.75,7.71,7.71,0,0,1-4.92,1.76c-3.9,0-6.43-2.54-6.43-5.85a7.57,7.57,0,0,1,2.14-5,11.42,11.42,0,0,1,2.15-1.87L296,336.8a6.24,6.24,0,0,1-1-1.21,6.1,6.1,0,0,1-1-3.28,6,6,0,0,1,5.85-5.65,5.66,5.66,0,0,1,5.66,5.65,6.22,6.22,0,0,1-1.29,3.48,8.65,8.65,0,0,1-1.25,1.4l-1.71,1.56,5,5.07,2.34-3.9H312l-3.71,5.85,5.27,5.46h-3.71Zm-6.82-7.22A7,7,0,0,0,298,342a5.41,5.41,0,0,0-1.64,3.55,3.31,3.31,0,0,0,3.51,3.31,5.78,5.78,0,0,0,3.59-1.36,11.13,11.13,0,0,0,1.48-1.37Zm0-3.7,1.56-1.37a6.18,6.18,0,0,0,.78-.94,4,4,0,0,0,.78-2.38,2.87,2.87,0,0,0-2.93-2.92,3,3,0,0,0-3.12,2.92,4.1,4.1,0,0,0,.78,2.31,11.27,11.27,0,0,0,.78,1Z"/><path class="cls-8" d="M356.13,326.66h2.74l9.36,24.57h-3.32l-2.34-6H352.43l-2.34,6h-3.32Zm5.47,15.8-4.1-10.73-4.1,10.73Z"/><path class="cls-8" d="M384.35,326.66h3.12V348.5h11.7v2.73H384.35Z"/><path class="cls-8" d="M415.68,326.66h3.13V348.5h11.7v2.73H415.68Z"/><path class="cls-8" d="M467.5,339c0,7-5.46,12.48-11.51,12.48S444.48,346,444.48,339,450,326.46,456,326.46,467.5,331.92,467.5,339Zm-19.9,0c0,5.65,4.1,9.75,8.39,9.75s8.39-4.1,8.39-9.75-4.1-9.76-8.39-9.76S447.6,333.29,447.6,339Z"/><path class="cls-8" d="M489.48,341.68l-8-15h3.31l6.24,11.7,6.25-11.7h3.31l-8,15v9.55h-3.12Z"/><path class="cls-8" d="M518.67,344c0,3,1.75,4.68,5.07,4.68s5.07-1.72,5.07-3.9c0-6.05-13.07-2.93-13.07-11.7,0-3.32,3.32-6.64,8-6.64a7.48,7.48,0,0,1,7.6,7.42h-3.12a4.45,4.45,0,0,0-4.48-4.69c-2.93,0-4.88,1.92-4.88,3.91,0,6,13.07,2.92,13.07,11.7,0,3.51-3.08,6.63-8.19,6.63s-8.19-3.12-8.19-7.41Z"/></svg>